<!DOCTYPE svg PUBLIC "-//W3C//DTD SVG 1.1//EN" "http://www.w3.org/Graphics/SVG/1.1/DTD/svg11.dtd">
<!-- Uploaded to: SVG Repo, www.svgrepo.com, Transformed by: SVG Repo Mixer Tools -->
<svg width="800px" height="800px" viewBox="0 0 48 48" fill="none" xmlns="http://www.w3.org/2000/svg">
<g id="SVGRepo_bgCarrier" stroke-width="0"/>
<g id="SVGRepo_tracerCarrier" stroke-linecap="round" stroke-linejoin="round"/>
<g id="SVGRepo_iconCarrier"> <rect width="48" height="48" fill="white" fill-opacity="0.01"/> <path d="M11.6777 20.271C7.27476 21.3181 4 25.2766 4 30C4 35.5228 8.47715 40 14 40C14.9474 40 15.864 39.8683 16.7325 39.6221" stroke="#F25C16" stroke-width="4" stroke-linecap="round" stroke-linejoin="round"/> <path d="M36.0547 20.271C40.4577 21.3181 43.7324 25.2766 43.7324 30C43.7324 35.5228 39.2553 40 33.7324 40V40C32.785 40 31.8684 39.8683 30.9999 39.6221" stroke="#F25C16" stroke-width="4" stroke-linecap="round" stroke-linejoin="round"/> <path d="M36 20C36 13.3726 30.6274 8 24 8C17.3726 8 12 13.3726 12 20" stroke="#F25C16" stroke-width="4" stroke-linecap="round" stroke-linejoin="round"/> <path d="M17.0654 27.881L23.9999 20.9236L31.1318 28" stroke="#F25C16" stroke-width="4" stroke-linecap="round" stroke-linejoin="round"/> <path d="M24 38V24.4618" stroke="#F25C16" stroke-width="4" stroke-linecap="round" stroke-linejoin="round"/> </g>
</svg>